<?xml version="1.0" standalone="no"?>
<svg xmlns="http://www.w3.org/2000/svg" viewBox="0 0 1440 320">
    <path fill="#115579" fill-opacity="1"
        d="M0,64L40,74.7C80,85,160,107,240,106.7C320,107,400,85,480,101.3C560,117,640,171,720,186.7C800,203,880,181,960,154.7C1040,128,1120,96,1200,96C1280,96,1360,128,1400,144L1440,160L1440,320L1400,320C1360,320,1280,320,1200,320C1120,320,1040,320,960,320C880,320,800,320,720,320C640,320,560,320,480,320C400,320,320,320,240,320C160,320,80,320,40,320L0,320Z">
    </path>
</svg>