<svg width="32" height="32" viewBox="0 0 32 32" fill="none" xmlns="http://www.w3.org/2000/svg">
    <path
        d="M15.8012 0.752628C15.6595 0.828156 15.5468 0.902359 15.4594 0.980536C15.4249 1.01101 15.2248 1.2641 15.0142 1.54236C14.4497 2.29101 14.0946 2.74816 13.5712 3.40538C12.1998 5.12397 11.7174 5.67917 9.90079 7.6323C9.4887 8.07486 8.82219 8.74401 8.40083 9.13623C8.23652 9.28861 7.99536 9.51519 7.86418 9.63975C6.82667 10.6229 6.01176 11.3451 5.09482 12.0924C3.84265 13.114 3.17747 13.6202 1.51586 14.8181C1.15014 15.0817 1.05077 15.1785 0.960661 15.3626C0.828156 15.629 0.826831 15.9192 0.955361 16.1895C0.999088 16.2796 1.03221 16.3246 1.14617 16.4412C1.29325 16.5949 1.40058 16.6784 1.80737 16.9554C2.22741 17.2429 4.09971 18.6528 4.75694 19.1788C5.37573 19.673 6.15619 20.3395 6.75114 20.8828C6.86774 20.9888 7.09698 21.1942 7.26128 21.34C7.71578 21.7441 7.99669 22.0038 8.46045 22.4543C8.94145 22.9221 10.2745 24.2696 10.4838 24.5002C10.5593 24.5837 10.7581 24.805 10.9251 24.9905C11.4325 25.5549 11.7214 25.8716 11.9758 26.1433C12.2249 26.4083 12.6065 26.8826 13.4983 28.0381C14.5583 29.4135 14.834 29.7938 15.1334 30.2933C15.2805 30.5385 15.3507 30.6312 15.4567 30.7134C15.6104 30.8353 15.7602 30.8989 15.9708 30.9333C16.2955 30.9863 16.5194 30.936 16.7354 30.7611C16.8494 30.6696 16.9024 30.6021 17.3449 29.9925C18.6316 28.2183 19.461 27.1914 20.9557 25.5139C21.4738 24.9335 21.7693 24.6208 22.7975 23.5674C23.4057 22.9446 23.4706 22.8797 23.7847 22.5921C23.9318 22.4583 24.3796 22.0369 24.9706 21.4778C25.0965 21.3585 26.138 20.4416 26.4745 20.1527C27.406 19.355 28.9524 18.1214 29.7938 17.5053C30.0774 17.2972 30.4643 17.0415 30.7015 16.9063C31.1785 16.636 31.3216 16.5101 31.4395 16.265C31.6131 15.9006 31.5058 15.4236 31.1665 15.0619C31.0751 14.9625 30.9731 14.8896 30.7929 14.7929C30.7028 14.7438 30.6113 14.6922 30.5888 14.6776C30.4457 14.5782 29.3353 13.762 28.4356 13.0942C27.997 12.7682 27.0443 12.0036 26.5951 11.6167C26.3738 11.4259 26.2228 11.2921 25.3747 10.5342C24.5612 9.80671 23.9874 9.25283 23.1964 8.42733C22.9631 8.18352 22.5034 7.70915 22.1747 7.37391C21.01 6.18534 21.1054 6.28737 20.5701 5.65797C19.8095 4.76488 18.6753 3.37093 18.185 2.7296C17.9359 2.40364 17.7769 2.18103 17.4377 1.68944C16.9739 1.01366 16.8586 0.890432 16.5459 0.743353L16.4333 0.689026H16.1776H15.9205L15.8012 0.752628ZM16.636 4.66286C16.9991 4.73706 17.2959 4.87354 17.6894 5.14782C18.4805 5.7017 19.6399 6.64646 20.7781 7.66542C21.006 7.86948 21.2578 8.09209 21.3386 8.16099C21.6394 8.41673 23.0427 9.83586 23.6986 10.5487C24.5625 11.4869 25.8041 12.9935 26.778 14.2841C27.3067 14.9837 27.5081 15.3878 27.5306 15.7946C27.5452 16.061 27.4975 16.2359 27.3067 16.6161C27.0059 17.2177 26.6826 17.6987 26.1022 18.405C25.1376 19.5803 24.532 20.2812 24.0497 20.7834C22.4106 22.4901 21.2936 23.5621 19.9818 24.687C18.7217 25.7683 17.6272 26.566 16.9408 26.9052C16.4545 27.1463 16.1047 27.1543 15.682 26.937C15.4236 26.8045 14.83 26.4348 14.4457 26.1671C13.7302 25.6689 13.2889 25.2992 11.7665 23.9172C11.5293 23.7025 11.1768 23.3832 10.9847 23.2083C10.081 22.3881 8.76522 21.1054 8.24712 20.5383C7.47064 19.6889 6.78559 18.8793 6.21317 18.1333C5.92033 17.753 5.2631 16.8639 5.17565 16.7301C4.85366 16.2412 4.80861 15.7376 5.03917 15.2156C5.1571 14.9466 5.38766 14.5716 5.65267 14.2165C5.99188 13.762 6.89292 12.6662 7.40041 12.0911C8.14907 11.2417 9.6265 9.70335 10.395 8.9706C10.7488 8.63404 11.7307 7.73035 12.1308 7.37391C12.7934 6.78294 13.5606 6.16149 14.4391 5.50029C15.2964 4.85631 15.519 4.71983 15.8145 4.6496C15.9682 4.61383 16.4253 4.62178 16.636 4.66286Z"
        fill="white" />
    <path
        d="M15.9444 5.26708C15.8172 5.29623 15.6688 5.36248 15.5376 5.45126C15.3839 5.55329 14.6127 6.13234 14.1317 6.50733C13.4864 7.0082 12.9789 7.43486 12.5218 7.85888C12.4012 7.97018 12.0673 8.27097 11.7784 8.52803C11.1132 9.12033 10.9423 9.28199 10.0505 10.1658C8.80632 11.3994 8.3823 11.8579 7.34611 13.0915C6.22379 14.4285 5.91903 14.8379 5.68317 15.3242C5.56789 15.5614 5.53741 15.6754 5.53741 15.8675C5.53741 16.1352 5.59572 16.2796 5.8488 16.6426C6.18669 17.1276 6.29799 17.276 6.71671 17.7954C7.42296 18.674 8.15042 19.5392 8.52673 19.9487C8.78512 20.2309 9.73253 21.1916 10.1963 21.6434C11.1053 22.5285 11.5531 22.9406 12.5946 23.8509C12.755 23.9914 13.0902 24.2842 13.338 24.5029C13.8481 24.9481 14.0403 25.1084 14.3371 25.3337C14.7452 25.6437 15.1215 25.8955 15.6197 26.1949C16.057 26.4573 16.0809 26.4666 16.3247 26.4467C16.6201 26.4242 16.7474 26.3699 17.1899 26.0783C17.5636 25.8319 17.6484 25.7683 18.1466 25.3694C19.4505 24.3253 20.2415 23.6575 21.0087 22.9499C21.3903 22.5974 22.4915 21.499 23.3329 20.6311C24.157 19.7817 24.1822 19.7539 24.6062 19.2464C24.7772 19.0423 25.0515 18.7177 25.2158 18.5242C25.6649 17.9982 25.8173 17.806 26.0717 17.4562C26.3659 17.0508 26.7051 16.5048 26.8005 16.2836C26.9317 15.9841 26.937 15.7072 26.8191 15.4528C26.7422 15.2884 26.5925 15.0738 26.0664 14.3728C25.1999 13.2174 24.7785 12.698 23.8523 11.6406C23.1023 10.7846 22.983 10.6587 22.037 9.71263C21.0445 8.72149 20.863 8.54923 20.0454 7.8337C19.3564 7.23081 18.0963 6.18402 17.6961 5.88323C17.2946 5.58112 16.9448 5.39958 16.5592 5.29226C16.4055 5.24985 16.0795 5.2366 15.9444 5.26708ZM16.2226 7.84033C16.2478 7.90526 16.5473 8.72281 16.8878 9.65963C17.227 10.5964 17.5901 11.5889 17.6921 11.8658C17.7941 12.1428 17.8816 12.3945 17.8842 12.425C17.8909 12.4793 17.8909 12.4807 17.8471 12.4873C17.7796 12.4979 17.2005 12.5217 17.0203 12.5217C16.8414 12.5217 16.7725 12.5363 16.7275 12.5814C16.6983 12.6105 16.6957 12.6238 16.6957 12.7563C16.6957 12.8344 16.7076 13.171 16.7222 13.5023C16.7633 14.4643 16.758 14.3198 16.8017 15.7814C16.8083 16.0252 16.8242 16.4041 16.8361 16.6228C16.8653 17.1568 16.8666 17.1515 16.6533 17.1886C16.542 17.2084 16.0212 17.2084 15.6701 17.1899C15.4727 17.1793 15.4448 17.1753 15.4276 17.1528C15.3984 17.1157 15.4117 16.6135 15.4621 15.7681C15.4833 15.3998 15.5045 14.9201 15.5098 14.7014C15.5164 14.3424 15.5548 13.2492 15.5773 12.7801C15.5893 12.535 15.5999 12.5456 15.3269 12.5337C14.7969 12.5085 14.5822 12.4913 14.5531 12.474C14.5358 12.4634 14.5226 12.4422 14.5226 12.425C14.5226 12.3879 14.6909 11.895 15.0765 10.7992C15.2355 10.3434 15.4051 9.85706 15.4501 9.71925C15.4965 9.58012 15.6568 9.10045 15.8092 8.65126C16.057 7.91718 16.1392 7.70252 16.167 7.71975C16.1723 7.7224 16.1975 7.77673 16.2226 7.84033ZM12.8027 13.5155C12.853 13.5301 12.9339 13.5738 13.0054 13.6229C13.2227 13.7699 13.4519 13.9197 13.7408 14.0985C13.8972 14.1966 14.0509 14.3 14.0827 14.3291L14.1396 14.3821L14.0919 14.406C14.0654 14.4205 13.8786 14.4815 13.6772 14.5424C13.1141 14.7134 12.8199 14.8167 12.6423 14.9068C12.4197 15.0181 12.1428 15.2434 11.9798 15.4422C11.8659 15.5813 11.7466 15.7681 11.7267 15.8397C11.6552 16.0981 11.8685 16.4942 12.2011 16.7208C12.2978 16.7858 12.5377 16.9063 12.7192 16.9805C13.3976 17.2575 14.5319 17.4735 15.7549 17.5569C16.004 17.5742 16.746 17.5742 17.0269 17.5569C17.9081 17.5039 18.7151 17.3622 19.571 17.113C20.1077 16.9567 20.3237 16.8653 20.6125 16.6705C21.0153 16.4015 21.1412 16.2531 21.1902 15.9934C21.23 15.7827 21.1425 15.474 20.9888 15.2805C20.8471 15.1003 20.4933 14.879 20.1011 14.724C19.958 14.667 19.9421 14.6643 19.8228 14.6643C19.6916 14.6643 19.526 14.6961 19.2305 14.7757C19.0688 14.8181 19.0291 14.8167 18.9893 14.7651C18.9748 14.7478 18.9231 14.6127 18.8741 14.4656C18.825 14.3185 18.7442 14.0853 18.6952 13.9462C18.6011 13.6878 18.5905 13.6388 18.6223 13.6268C18.6369 13.6215 20.4668 14.076 21.1346 14.2509L21.2472 14.2801L21.1942 14.2947C21.1651 14.3026 21.0882 14.3225 21.022 14.3384C20.9213 14.3636 20.8948 14.3755 20.8524 14.4179C20.8113 14.4576 20.8047 14.4735 20.8139 14.4921C20.8219 14.5053 20.9067 14.5663 21.0047 14.6272C21.1015 14.6895 21.279 14.8048 21.3996 14.8856C21.7454 15.1162 21.9283 15.3176 22.0356 15.5866C22.1893 15.9708 22.1231 16.2544 21.7931 16.6307C21.4235 17.0534 20.7861 17.3873 19.8307 17.6576C19.1735 17.8445 18.2288 18.0114 17.4178 18.0856C16.542 18.1651 15.7509 18.1757 14.8737 18.1201C13.717 18.0459 12.7523 17.859 11.8195 17.5291C11.422 17.3873 10.7435 17.1117 10.5196 16.9991C10.2122 16.8454 9.87828 16.5565 9.7047 16.2955C9.5881 16.1206 9.5404 15.9695 9.5404 15.7747C9.5404 15.3971 9.79216 14.9585 10.1963 14.6312C10.4428 14.4311 10.888 14.1622 11.308 13.9594C11.5942 13.8203 11.7943 13.7381 12.111 13.6268C12.5204 13.4851 12.6397 13.4652 12.8027 13.5155ZM16.1259 18.499C16.6042 18.499 16.86 18.5096 16.8878 18.5295C16.9156 18.5494 16.9289 18.6567 16.9474 18.9946C16.9739 19.522 17.0137 20.2004 17.0269 20.3727C17.0349 20.4667 17.0468 20.7768 17.0534 21.0617C17.0693 21.6778 17.1011 22.5312 17.121 22.8174C17.1369 23.0652 17.1316 23.1102 17.0773 23.1553L17.0375 23.1884H16.1551C15.3401 23.1884 15.2673 23.1871 15.2249 23.1646C15.1427 23.1248 15.144 23.1275 15.1851 22.5921C15.205 22.3258 15.2262 21.9919 15.2302 21.8501C15.2474 21.3572 15.2659 20.912 15.2991 20.2335C15.3189 19.8586 15.3348 19.3749 15.3375 19.1602C15.3428 18.6475 15.3547 18.5467 15.4143 18.503C15.4382 18.4858 15.4687 18.4845 15.5893 18.4911C15.6701 18.4951 15.9112 18.499 16.1259 18.499Z"
        fill="white" />
    <path
        d="M21.2445 27.6658C20.696 27.7532 20.3117 28.2157 20.3435 28.747C20.3621 29.0332 20.4667 29.2571 20.6761 29.4519C20.9994 29.754 21.5056 29.8216 21.9031 29.6136C22.1615 29.4784 22.3523 29.2439 22.4291 28.9656C22.4623 28.8437 22.4623 28.5416 22.4291 28.4224C22.3311 28.0659 22.0462 27.7863 21.6831 27.6923C21.5665 27.6631 21.3492 27.6499 21.2445 27.6658ZM21.6527 27.9043C21.8806 27.9771 22.0793 28.1799 22.1562 28.4224C22.1959 28.5456 22.2052 28.7589 22.1761 28.8914C22.1111 29.1803 21.8898 29.4148 21.6116 29.489C21.5162 29.5142 21.3068 29.5142 21.2074 29.489C20.8497 29.3949 20.6032 29.0703 20.6045 28.6913C20.6059 28.2965 20.8722 27.9599 21.2472 27.8791C21.336 27.8592 21.5559 27.8725 21.6527 27.9043Z"
        fill="white" />
    <path
        d="M21.1213 28.1786C21.1028 28.1812 21.0683 28.1878 21.0458 28.1918L21.0021 28.1984V28.7139V29.2306H21.1213H21.2406V29.0253V28.8199H21.3333C21.4976 28.8199 21.5361 28.8517 21.5785 29.0186C21.5904 29.0663 21.6089 29.1326 21.6195 29.167L21.6408 29.2306H21.7733C21.8952 29.2306 21.9044 29.2293 21.8952 29.2068C21.8899 29.1949 21.8687 29.1207 21.8488 29.0438C21.7971 28.8371 21.7666 28.7841 21.6726 28.7351L21.6341 28.7152L21.6951 28.6874C21.8448 28.6171 21.8952 28.4754 21.8236 28.3296C21.7931 28.27 21.764 28.2448 21.6845 28.2077C21.6248 28.1812 21.5957 28.1772 21.3863 28.1759C21.2591 28.1746 21.1399 28.1759 21.1213 28.1786ZM21.5188 28.3667C21.5705 28.3919 21.5983 28.4369 21.5983 28.4952C21.5983 28.588 21.5228 28.6357 21.3572 28.645L21.2406 28.6516V28.4966V28.3429H21.3572C21.4407 28.3429 21.4857 28.3495 21.5188 28.3667Z"
        fill="white" />
</svg>